<svg height="440pt" viewBox="-28 0 440 440" width="440pt" xmlns="http://www.w3.org/2000/svg"><path d="m32 0h320c8.835938 0 16 7.164062 16 16v208h-352v-208c0-8.835938 7.164062-16 16-16zm0 0" fill="#acabb1"/><path d="m56 32h272c4.417969 0 8 3.582031 8 8v144c0 4.417969-3.582031 8-8 8h-272c-4.417969 0-8-3.582031-8-8v-144c0-4.417969 3.582031-8 8-8zm0 0" fill="#67cdd9"/><path d="m8 256h368c4.417969 0 8-3.582031 8-8v-24h-384v24c0 4.417969 3.582031 8 8 8zm0 0" fill="#898890"/><path d="m336 40v144c0 4.417969-3.582031 8-8 8h-224.320312c77.492187-36.308594 144.753906-91.285156 195.761718-160h28.558594c4.417969 0 8 3.582031 8 8zm0 0" fill="#62c0cc"/><path d="m160 224h64v8h-64zm0 0" fill="#787680"/><g fill="#ffe477"><path d="m184 104h16v16h-16zm0 0"/><path d="m232 104h16v16h-16zm0 0"/><path d="m136 104h16v16h-16zm0 0"/></g><path d="m256 360c-13.253906 0-24 10.746094-24 24v32c0 13.253906 10.746094 24 24 24s24-10.746094 24-24v-32c0-13.253906-10.746094-24-24-24zm0 0" fill="#67cdd9"/><path d="m272.960938 343.039062c-2.121094 0-4.15625-.84375-5.65625-2.34375-6.316407-6.0625-16.292969-6.0625-22.609376 0-3.136718 3.03125-8.128906 2.988282-11.214843-.097656-3.085938-3.085937-3.128907-8.074218-.097657-11.214844 12.644532-12.109374 32.589844-12.109374 45.234376 0 2.285156 2.289063 2.96875 5.730469 1.730468 8.71875-1.234375 2.988282-4.152344 4.9375-7.386718 4.9375zm0 0" fill="#3d9ae2"/><path d="m272.960938 343.039062c-2.121094 0-4.15625-.84375-5.65625-2.34375-6.316407-6.0625-16.292969-6.0625-22.609376 0-3.136718 3.03125-8.128906 2.988282-11.214843-.097656-3.085938-3.085937-3.128907-8.074218-.097657-11.214844 12.644532-12.109374 32.589844-12.109374 45.234376 0 2.285156 2.289063 2.96875 5.730469 1.730468 8.71875-1.234375 2.988282-4.152344 4.9375-7.386718 4.9375zm0 0" fill="#3d9ae2"/><path d="m295.601562 320.398438c-2.125 0-4.15625-.84375-5.65625-2.34375-18.746093-18.746094-49.144531-18.746094-67.890624 0-3.136719 3.03125-8.128907 2.988281-11.214844-.097657-3.085938-3.085937-3.128906-8.074219-.097656-11.214843 24.996093-24.992188 65.519531-24.992188 90.515624 0 2.285157 2.289062 2.96875 5.730468 1.730469 8.71875-1.238281 2.988281-4.152343 4.9375-7.386719 4.9375zm0 0" fill="#3d9ae2"/><path d="m248 376h16v16h-16zm0 0" fill="#ff7956"/></svg>