<svg height="432pt" viewBox="-32 0 432 432" width="432pt" xmlns="http://www.w3.org/2000/svg"><path d="m16 208h336v-200c0-4.417969-3.582031-8-8-8h-320c-4.417969 0-8 3.582031-8 8zm208-112h16v16h-16zm-48 0h16v16h-16zm-48 0h16v16h-16zm0 0"/><path d="m0 224v16c0 4.417969 3.582031 8 8 8h352c4.417969 0 8-3.582031 8-8v-16h-144c0 4.417969-3.582031 8-8 8h-64c-4.417969 0-8-3.582031-8-8zm0 0"/><path d="m236.695312 332.695312c6.316407-6.0625 16.292969-6.0625 22.609376 0 3.136718 3.03125 8.128906 2.988282 11.214843-.097656 3.085938-3.085937 3.128907-8.074218.097657-11.214844-12.644532-12.109374-32.589844-12.109374-45.234376 0-3.03125 3.140626-2.988281 8.128907.097657 11.214844 3.085937 3.085938 8.078125 3.128906 11.214843.097656zm0 0"/><path d="m248 280c-16.984375-.046875-33.28125 6.703125-45.257812 18.742188-3.03125 3.140624-2.988282 8.128906.097656 11.214843 3.085937 3.085938 8.078125 3.128907 11.214844.097657 18.746093-18.746094 49.144531-18.746094 67.890624 0 3.136719 3.03125 8.128907 2.988281 11.214844-.097657 3.085938-3.085937 3.128906-8.074219.097656-11.214843-11.976562-12.039063-28.273437-18.789063-45.257812-18.742188zm0 0"/><path d="m248 368c-8.835938 0-16 7.164062-16 16v32c0 8.835938 7.164062 16 16 16s16-7.164062 16-16v-32c0-8.835938-7.164062-16-16-16zm8 56h-16v-16h16zm0 0"/></svg>